<svg width="37" height="17" viewBox="0 0 37 17" fill="none" xmlns="http://www.w3.org/2000/svg">
<g clip-path="url(#clip0_1910_793)">
<path d="M3.17608e-05 8.5V0H5.01218H10.0243L10.0688 3.375L10.1133 6.75L11.7989 6.79749L13.4844 6.84499V11.9225V17H6.74222H0L3.17608e-05 8.5ZM10.1956 11.9167V10.1667H6.74225H3.28892V11.9167V13.6667H6.74225H10.1956V11.9167ZM6.74225 5.08333V3.33333H5.01558H3.28892V5.08333V6.83333H5.01558H6.74225V5.08333ZM16.9378 8.5V0H18.5H20.0622V8.5V17H18.5H16.9378V8.5ZM23.5156 8.5V0H30.2578H37V1.66667V3.33333H31.9022H26.8045V8.5V13.6667H30.2578H33.7111V11.9167V10.1667H32.0667H30.4222V8.5V6.83333H33.7111H37V11.9167V17H30.2578H23.5156V8.5Z" fill="black"/>
</g>
<defs>
<clipPath id="clip0_1910_793">
<rect width="37" height="17" fill="white"/>
</clipPath>
</defs>
</svg>
