<svg width="29" height="30" viewBox="0 0 29 30" fill="none" xmlns="http://www.w3.org/2000/svg">
<path d="M14.1439 27.7641C14.0942 27.7127 14.0523 27.4766 14.0507 27.2391C14.0489 27.0015 13.9351 26.5506 13.7973 26.2369C13.5534 25.6813 13.3016 25.3892 11.6978 23.8005C11.0363 23.1454 10.7471 22.6699 9.69988 20.5153C8.31925 17.6747 7.91717 16.9901 6.83019 15.6276C5.78383 14.3162 5.82849 13.7846 7.016 13.4164C7.46475 13.2771 7.64703 13.2921 8.193 13.5064C8.95676 13.8084 10.0355 14.8779 10.5905 15.8835C10.8029 16.2688 11.101 16.7256 11.2528 16.8988C11.5724 17.2637 12.0923 17.3145 12.2117 16.9931C12.2569 16.8709 12.294 14.2316 12.294 11.127C12.294 4.63307 12.2432 4.90886 13.4623 4.78779C14.0444 4.72993 14.1953 4.76636 14.5366 5.07407L14.9337 5.42764V8.24293C14.9337 10.1529 14.9772 10.9971 15.069 10.8684C15.4414 10.3461 16.2427 10.2131 16.8992 10.5643C17.406 10.8354 17.5723 11.1675 17.5776 11.919C17.5818 12.4446 17.6048 12.4922 17.7578 12.2837C18.482 11.2978 20.2807 11.9884 20.2807 13.2525V13.734L20.6374 13.4439C21.0576 13.1019 21.343 13.0824 21.9682 13.3517C22.7896 13.7066 22.8252 13.9059 22.8734 18.4189L22.9169 22.4844L22.2666 23.7793C21.5469 25.2124 21.2877 25.9864 21.1524 27.1071L21.0619 27.8567H17.648C15.7705 27.8567 14.1935 27.8156 14.1439 27.7641ZM11.0881 9.0195C10.2456 8.23243 9.85978 7.3095 9.85978 6.08143C9.85978 2.00293 15.0087 0.630002 16.9503 4.191C17.324 4.87629 17.3699 5.08457 17.3676 6.08143C17.3656 7.02343 17.3069 7.31657 17 7.92279C16.6744 8.56607 15.7884 9.51236 15.5119 9.51236C15.2451 9.51236 15.4493 8.82343 15.8259 8.45336C16.8169 7.47943 17.1155 5.86007 16.5231 4.67164C16.1611 3.94522 15.3164 3.15386 14.6662 2.93164C13.3225 2.47307 11.6447 3.10736 10.8981 4.35664C10.1197 5.65929 10.2845 7.18972 11.3367 8.42957C11.6151 8.75764 11.7565 9.05722 11.7285 9.25993C11.6867 9.56143 11.6558 9.54986 11.0881 9.0195ZM11.3677 7.14622C10.1204 4.1715 14.232 2.00657 15.7753 4.8255C16.1428 5.49664 16.1813 6.52779 15.8646 7.21822C15.477 8.06314 15.3577 7.95922 15.4473 6.85393C15.5447 5.65243 15.3827 5.13043 14.7385 4.56964C13.9634 3.89507 12.4949 4.15715 11.9978 5.05886C11.9001 5.23672 11.7895 5.94857 11.7523 6.64179L11.6845 7.90222L11.3677 7.14622Z" fill="#CA9263"/>
</svg>
