<svg width="30" height="19" viewBox="0 0 30 19" fill="none" xmlns="http://www.w3.org/2000/svg">
<path d="M2.553 18C2.025 18 1.617 17.864 1.329 17.592C1.057 17.304 0.920998 16.896 0.920998 16.368V2.712C0.920998 2.184 1.057 1.784 1.329 1.512C1.617 1.224 2.025 1.08 2.553 1.08H11.121C11.521 1.08 11.825 1.184 12.033 1.392C12.257 1.6 12.369 1.896 12.369 2.28C12.369 2.68 12.257 2.992 12.033 3.216C11.825 3.424 11.521 3.528 11.121 3.528H3.873V8.184H10.593C11.009 8.184 11.321 8.288 11.529 8.496C11.737 8.704 11.841 9.008 11.841 9.408C11.841 9.808 11.737 10.112 11.529 10.32C11.321 10.528 11.009 10.632 10.593 10.632H3.873V15.552H11.121C11.521 15.552 11.825 15.656 12.033 15.864C12.257 16.072 12.369 16.376 12.369 16.776C12.369 17.176 12.257 17.48 12.033 17.688C11.825 17.896 11.521 18 11.121 18H2.553ZM16.6813 18.192C16.2173 18.192 15.8573 18.064 15.6013 17.808C15.3613 17.552 15.2413 17.184 15.2413 16.704V2.424C15.2413 1.928 15.3613 1.552 15.6013 1.296C15.8573 1.024 16.1853 0.887999 16.5853 0.887999C16.9533 0.887999 17.2253 0.959999 17.4013 1.104C17.5933 1.232 17.8173 1.456 18.0733 1.776L27.2653 13.704H26.6413V2.352C26.6413 1.888 26.7613 1.528 27.0013 1.272C27.2573 1.016 27.6173 0.887999 28.0813 0.887999C28.5453 0.887999 28.8973 1.016 29.1373 1.272C29.3773 1.528 29.4973 1.888 29.4973 2.352V16.752C29.4973 17.2 29.3853 17.552 29.1613 17.808C28.9373 18.064 28.6333 18.192 28.2493 18.192C27.8813 18.192 27.5853 18.12 27.3613 17.976C27.1533 17.832 26.9213 17.6 26.6653 17.28L17.4973 5.352H18.0973V16.704C18.0973 17.184 17.9773 17.552 17.7373 17.808C17.4973 18.064 17.1453 18.192 16.6813 18.192Z" fill="#989592"/>
</svg>
