<svg width="28" height="18" viewBox="0 0 28 18" fill="none" xmlns="http://www.w3.org/2000/svg">
<path d="M2.432 17.192C1.936 17.192 1.544 17.056 1.256 16.784C0.984 16.496 0.848 16.088 0.848 15.56V1.712C0.848 1.184 0.984 0.783999 1.256 0.511999C1.544 0.223999 1.952 0.079999 2.48 0.079999H10.856C11.272 0.079999 11.584 0.183999 11.792 0.391999C12 0.599999 12.104 0.895999 12.104 1.28C12.104 1.68 12 1.992 11.792 2.216C11.584 2.424 11.272 2.528 10.856 2.528H3.92V7.304H10.352C10.752 7.304 11.056 7.408 11.264 7.616C11.488 7.824 11.6 8.12 11.6 8.504C11.6 8.904 11.488 9.216 11.264 9.44C11.056 9.648 10.752 9.752 10.352 9.752H3.92V15.56C3.92 16.648 3.424 17.192 2.432 17.192ZM15.8606 17.192C15.3646 17.192 14.9806 17.056 14.7086 16.784C14.4526 16.496 14.3246 16.104 14.3246 15.608V1.64C14.3246 1.128 14.4606 0.743999 14.7326 0.487999C15.0046 0.215999 15.3886 0.079999 15.8846 0.079999H21.6686C23.5246 0.079999 24.9566 0.527999 25.9646 1.424C26.9726 2.304 27.4766 3.544 27.4766 5.144C27.4766 6.184 27.2446 7.08 26.7806 7.832C26.3326 8.584 25.6766 9.16 24.8126 9.56C23.9486 9.96 22.9006 10.16 21.6686 10.16L21.8846 9.8H22.6766C23.3326 9.8 23.9006 9.96 24.3806 10.28C24.8766 10.6 25.3086 11.104 25.6766 11.792L27.4766 15.128C27.6686 15.464 27.7566 15.792 27.7406 16.112C27.7246 16.432 27.6046 16.696 27.3806 16.904C27.1566 17.096 26.8286 17.192 26.3966 17.192C25.9646 17.192 25.6126 17.104 25.3406 16.928C25.0686 16.736 24.8286 16.448 24.6206 16.064L22.1966 11.6C21.9086 11.056 21.5646 10.696 21.1646 10.52C20.7806 10.328 20.2846 10.232 19.6766 10.232H17.3966V15.608C17.3966 16.104 17.2686 16.496 17.0126 16.784C16.7566 17.056 16.3726 17.192 15.8606 17.192ZM17.3966 7.952H21.1406C22.2446 7.952 23.0766 7.728 23.6366 7.28C24.2126 6.816 24.5006 6.128 24.5006 5.216C24.5006 4.32 24.2126 3.648 23.6366 3.2C23.0766 2.736 22.2446 2.504 21.1406 2.504H17.3966V7.952Z" fill="#F7F7F7"/>
</svg>
