<svg width="29" height="28" viewBox="0 0 29 28" fill="none" xmlns="http://www.w3.org/2000/svg">
<path d="M4 10.3412V19.8749C4 22.369 4 23.616 4.49047 24.5685C4.9219 25.4065 5.61031 26.0877 6.45705 26.5146C7.41964 27 8.67976 27 11.2 27H17.8C20.3203 27 21.5803 27 22.543 26.5146C23.3897 26.0877 24.0781 25.4065 24.5095 24.5685C25 23.616 25 22.369 25 19.8749V3.24956M28 13.6404L19.8502 4.68048C17.9967 2.64274 17.07 1.62387 15.9784 1.24772C15.0199 0.917352 13.9765 0.917426 13.0178 1.24794C11.9264 1.62424 10.9999 2.64325 9.14671 4.68127L1 13.6404" stroke="black" stroke-width="2" stroke-linecap="round" stroke-linejoin="round"/>
</svg>
