<svg width="26" height="34" viewBox="0 0 26 34" fill="none" xmlns="http://www.w3.org/2000/svg">
<g id="Logo noir">
<path id="Vector 2" d="M20.3754 14.9394L7.64079 7.4697V12.3636L15.0269 18.5455V28.5909H6.36732L9.93303 26.7879H13.4987V23.1818L7.3861 19.3182V26.7879L3.05632 29.6212H23.6864C21.6489 32.9182 17.0644 33.9141 15.0269 34H0V0H15.5363C17.9813 0 20.2905 1.71717 21.1395 2.57576C22.1583 3.5202 24.2468 6.1303 24.4505 9.01515C24.6543 11.9 23.8562 14.1667 23.4318 14.9394C24.1958 15.798 25.7749 18.4424 25.9787 22.1515C26.1824 25.8606 24.875 27.9899 24.1958 28.5909H16.555V17.5152L20.3754 14.9394Z" fill="#F7F7F7"/>
</g>
</svg>
