<svg width="65" height="41" viewBox="0 0 65 41" fill="none" xmlns="http://www.w3.org/2000/svg">
<path d="M22.4328 30.9426H23.5763V31.1561H22.7067V31.812H23.51V32.023H22.7067V32.9162H22.4328V30.9426Z" fill="white"/>
<path d="M24.1904 31.9412C24.1904 31.774 24.1873 31.6307 24.1776 31.4989H24.4204L24.4302 31.7771H24.4429C24.5123 31.5867 24.6791 31.4666 24.8653 31.4666C24.8969 31.4666 24.9188 31.4696 24.9438 31.4751V31.7179C24.9152 31.7118 24.8872 31.7094 24.8494 31.7094C24.6541 31.7094 24.5153 31.8472 24.4776 32.04C24.4715 32.0754 24.4648 32.1163 24.4648 32.1602V32.9155H24.191V31.94L24.1904 31.9412Z" fill="white"/>
<path d="M26.3642 32.9167L26.3422 32.7379H26.3325C26.2473 32.849 26.0836 32.949 25.8664 32.949C25.5578 32.949 25.4002 32.7471 25.4002 32.5421C25.4002 32.1992 25.7276 32.012 26.3173 32.015V31.9857C26.3173 31.8686 26.2826 31.6575 25.971 31.6575C25.8292 31.6575 25.6813 31.6984 25.5742 31.763L25.511 31.5934C25.6369 31.5172 25.8195 31.4678 26.0118 31.4678C26.478 31.4678 26.5918 31.7637 26.5918 32.0473V32.5775C26.5918 32.7007 26.5978 32.8203 26.6167 32.9173H26.3648L26.3642 32.9167ZM26.3234 32.1931C26.0209 32.187 25.6777 32.2371 25.6777 32.5122C25.6777 32.6794 25.7976 32.7581 25.9394 32.7581C26.1378 32.7581 26.2637 32.6409 26.3082 32.5207C26.3179 32.4945 26.324 32.4652 26.324 32.439V32.1931H26.3234Z" fill="white"/>
<path d="M27.3537 31.8826C27.3537 31.7362 27.3506 31.616 27.3409 31.4989H27.5868L27.6026 31.7332H27.6087C27.6841 31.5983 27.8606 31.4666 28.1126 31.4666C28.3237 31.4666 28.6511 31.5837 28.6511 32.0699V32.9161H28.3736V32.0992C28.3736 31.871 28.2824 31.6807 28.0207 31.6807C27.8381 31.6807 27.6963 31.8009 27.6488 31.9442C27.6361 31.9766 27.63 32.0205 27.63 32.0644V32.9167H27.3525V31.8826H27.3537Z" fill="white"/>
<path d="M30.5036 32.8643C30.4312 32.8997 30.2705 32.9461 30.0654 32.9461C29.6054 32.9461 29.306 32.6563 29.306 32.2225C29.306 31.7888 29.6273 31.4697 30.1251 31.4697C30.2888 31.4697 30.4336 31.5075 30.5097 31.5429L30.4464 31.7418C30.3801 31.7064 30.276 31.6747 30.1251 31.6747C29.7752 31.6747 29.5865 31.9151 29.5865 32.2103C29.5865 32.5386 29.8135 32.7405 30.116 32.7405C30.2736 32.7405 30.3776 32.7027 30.4561 32.6703L30.5036 32.8637V32.8643Z" fill="white"/>
<path d="M31.1432 30.8376H31.4207V31.7222H31.4268C31.4712 31.649 31.54 31.5844 31.6252 31.5404C31.7073 31.4965 31.8047 31.4672 31.9088 31.4672C32.1139 31.4672 32.4413 31.5844 32.4413 32.0736V32.9174H32.1638V32.1035C32.1638 31.8748 32.0725 31.682 31.8108 31.682C31.6313 31.682 31.4895 31.7991 31.439 31.9394C31.4231 31.9748 31.4201 32.0126 31.4201 32.0627V32.918H31.1426V30.8389L31.1432 30.8376Z" fill="white"/>
<path d="M33.3608 32.2548C33.3669 32.6031 33.6067 32.7465 33.8836 32.7465C34.082 32.7465 34.2018 32.7141 34.3059 32.6733L34.3534 32.8575C34.256 32.8984 34.0886 32.9454 33.8458 32.9454C33.3766 32.9454 33.0961 32.658 33.0961 32.231C33.0961 31.8039 33.3669 31.4666 33.8111 31.4666C34.309 31.4666 34.441 31.8735 34.441 32.134C34.441 32.1864 34.4349 32.2279 34.4313 32.2541H33.3602L33.3608 32.2548ZM34.1738 32.0705C34.1769 31.9064 34.1014 31.652 33.7892 31.652C33.5087 31.652 33.3858 31.8924 33.3639 32.0705H34.1738Z" fill="white"/>
<path d="M35.831 32.0291V32.2194H35.0526V32.0291H35.831Z" fill="white"/>
<path d="M38.0078 32.8521C37.9068 32.8991 37.7053 32.9461 37.4467 32.9461C36.8479 32.9461 36.3975 32.5947 36.3975 31.9474C36.3975 31.3001 36.8479 30.9109 37.5063 30.9109C37.7711 30.9109 37.9378 30.9634 38.0102 30.9987L37.9439 31.2068C37.8398 31.1598 37.692 31.125 37.5155 31.125C37.0177 31.125 36.6866 31.4209 36.6866 31.9395C36.6866 32.4226 36.986 32.7332 37.5027 32.7332C37.6694 32.7332 37.8398 32.7008 37.95 32.6514L38.0066 32.8533L38.0078 32.8521Z" fill="white"/>
<path d="M40.0021 32.1963C40.0021 32.7204 39.6114 32.9491 39.2426 32.9491C38.83 32.9491 38.5117 32.6679 38.5117 32.2201C38.5117 31.7455 38.8458 31.4673 39.2681 31.4673C39.6905 31.4673 40.0021 31.7632 40.0021 32.1963ZM38.7922 32.211C38.7922 32.5215 38.9845 32.7557 39.2554 32.7557C39.5262 32.7557 39.7185 32.5245 39.7185 32.2055C39.7185 31.9651 39.5895 31.6607 39.2614 31.6607C38.9334 31.6607 38.7922 31.9419 38.7922 32.211Z" fill="white"/>
<path d="M40.6666 31.8827C40.6666 31.7363 40.6636 31.6161 40.6538 31.499H40.8966L40.9094 31.7278H40.9192C41.0044 31.593 41.1462 31.4673 41.3981 31.4673C41.6062 31.4673 41.7638 31.5844 41.8296 31.7516H41.8357C41.8831 31.6723 41.9428 31.6113 42.0061 31.5673C42.0973 31.5027 42.1984 31.4679 42.3432 31.4679C42.5446 31.4679 42.844 31.5911 42.844 32.0828V32.9174H42.5732V32.1152C42.5732 31.8431 42.4661 31.679 42.2422 31.679C42.0846 31.679 41.9616 31.7876 41.9148 31.9132C41.902 31.9486 41.8929 31.995 41.8929 32.042V32.9174H41.6221V32.0682C41.6221 31.8425 41.5149 31.679 41.3038 31.679C41.1303 31.679 41.0044 31.8077 40.9605 31.9364C40.9447 31.9742 40.9386 32.0182 40.9386 32.0621V32.9174H40.6678V31.8833L40.6666 31.8827Z" fill="white"/>
<path d="M43.9303 31.092V31.499H44.3271V31.6954H43.9303V32.4598C43.9303 32.6355 43.9839 32.7349 44.1385 32.7349C44.2109 32.7349 44.2644 32.7264 44.2991 32.7173L44.3119 32.9106C44.2584 32.9314 44.1732 32.946 44.066 32.946C43.937 32.946 43.833 32.9082 43.7666 32.8374C43.6881 32.7612 43.6595 32.6355 43.6595 32.4683V31.6954H43.4234V31.499H43.6595V31.1591L43.9303 31.092Z" fill="white"/>
<path d="M45.0896 32.2548C45.0957 32.6031 45.3355 32.7465 45.6124 32.7465C45.8108 32.7465 45.9307 32.7141 46.0347 32.6733L46.0822 32.8575C45.9842 32.8984 45.8175 32.9454 45.5747 32.9454C45.1055 32.9454 44.8249 32.658 44.8249 32.231C44.8249 31.8039 45.0957 31.4666 45.54 31.4666C46.0378 31.4666 46.1698 31.8735 46.1698 32.134C46.1698 32.1864 46.1638 32.2279 46.1601 32.2541H45.089L45.0896 32.2548ZM45.9027 32.0705C45.9057 31.9064 45.8303 31.652 45.5181 31.652C45.2375 31.652 45.1146 31.8924 45.0927 32.0705H45.9027Z" fill="white"/>
<path d="M6.89806 28.8256H55.8338C55.8606 28.8256 55.8862 28.8176 55.9081 28.8024L56.7278 28.2271C56.743 28.2167 56.7601 28.2094 56.7783 28.2057C56.8678 28.1899 57.2007 28.2924 57.0047 28.3772C56.7546 28.4864 56.1412 28.9238 56.0006 28.9824C55.9848 28.9891 55.9683 28.9921 55.9519 28.9921L6.89867 29.0842C6.82747 29.0842 6.76965 29.0263 6.76965 28.9549C6.76965 28.8835 6.82747 28.8256 6.89867 28.8256H6.89806Z" fill="white"/>
<path d="M8.76634 20.7357C8.74443 20.3227 8.71766 19.8261 8.72192 19.4576H8.70853C8.6069 19.8047 8.48336 20.1738 8.33365 20.5819L7.80846 22.0186H7.51757L7.03681 20.6088C6.89562 20.1915 6.77634 19.809 6.69297 19.4576H6.68384C6.67471 19.8267 6.6528 20.3233 6.62663 20.7668L6.54691 22.0363H6.18056L6.38808 19.0757H6.87797L7.38551 20.5075C7.50905 20.8723 7.61068 21.1969 7.68553 21.5044H7.69892C7.77378 21.2054 7.87967 20.8809 8.01233 20.5075L8.54178 19.0757H9.03168L9.21668 22.0363H8.8418L8.76695 20.7363L8.76634 20.7357Z" fill="white"/>
<path d="M10.3675 21.0431C10.3766 21.5659 10.7113 21.7813 11.0996 21.7813C11.3777 21.7813 11.545 21.7331 11.6905 21.6715L11.7568 21.9484C11.6199 22.0101 11.3862 22.0802 11.0466 22.0802C10.3894 22.0802 9.99686 21.6495 9.99686 21.0083C9.99686 20.3672 10.376 19.862 10.9986 19.862C11.6954 19.862 11.881 20.4727 11.881 20.8637C11.881 20.9431 11.8718 21.0041 11.8676 21.0437H10.3675V21.0431ZM11.5055 20.7661C11.5097 20.5203 11.4039 20.1378 10.9675 20.1378C10.575 20.1378 10.4028 20.4977 10.3717 20.7661H11.5055ZM11.598 18.9915L11.06 19.6198H10.7819L11.1702 18.9915H11.598Z" fill="white"/>
<path d="M13.1602 19.2988V19.9095H13.7158V20.2036H13.1602V21.3499C13.1602 21.6134 13.235 21.7629 13.4511 21.7629C13.5527 21.7629 13.6276 21.7495 13.6762 21.7366L13.6939 22.0264C13.619 22.0569 13.4998 22.0789 13.35 22.0789C13.1693 22.0789 13.0239 22.0215 12.9307 21.9166C12.8206 21.8025 12.781 21.6134 12.781 21.3633V20.2036H12.45V19.9095H12.781V19.4001L13.1602 19.2988Z" fill="white"/>
<path d="M14.9159 19.3124C14.9201 19.4442 14.8234 19.5497 14.6688 19.5497C14.5319 19.5497 14.4351 19.4442 14.4351 19.3124C14.4351 19.1806 14.5367 19.0708 14.6779 19.0708C14.8191 19.0708 14.9159 19.1763 14.9159 19.3124ZM14.4838 22.0357V19.9096H14.8721V22.0357H14.4838Z" fill="white"/>
<path d="M16.063 21.0431C16.0721 21.566 16.4069 21.7813 16.7951 21.7813C17.0732 21.7813 17.2406 21.7331 17.386 21.6715L17.4524 21.9485C17.3154 22.0101 17.0817 22.0803 16.7422 22.0803C16.0849 22.0803 15.6924 21.6495 15.6924 21.0084C15.6924 20.3672 16.0715 19.8621 16.6941 19.8621C17.3909 19.8621 17.5765 20.4727 17.5765 20.8638C17.5765 20.9431 17.5674 21.0041 17.5631 21.0438H16.063V21.0431ZM17.201 20.7662C17.2053 20.5203 17.0994 20.1378 16.6631 20.1378C16.2705 20.1378 16.0983 20.4977 16.0673 20.7662H17.201Z" fill="white"/>
<path d="M18.3877 20.5727C18.3877 20.3225 18.3835 20.1072 18.3701 19.9095H18.7097L18.723 20.3268H18.7407C18.8374 20.0413 19.0717 19.8613 19.3316 19.8613C19.3754 19.8613 19.4065 19.8656 19.4418 19.8747V20.2396C19.4022 20.231 19.3626 20.2261 19.3097 20.2261C19.0364 20.2261 18.8423 20.4323 18.7894 20.7227C18.7802 20.7752 18.7717 20.8368 18.7717 20.9027V22.0362H18.3877V20.5733V20.5727Z" fill="white"/>
<path d="M20.1087 21.6403C20.2232 21.7147 20.4264 21.794 20.6205 21.794C20.9029 21.794 21.035 21.6537 21.035 21.478C21.035 21.2938 20.9248 21.1925 20.6382 21.0869C20.2542 20.9509 20.0734 20.7398 20.0734 20.4854C20.0734 20.1426 20.3516 19.8613 20.8104 19.8613C21.0265 19.8613 21.2163 19.9229 21.3356 19.9931L21.2388 20.2743C21.1549 20.2219 21.0003 20.1511 20.8019 20.1511C20.5725 20.1511 20.4447 20.2829 20.4447 20.4409C20.4447 20.6166 20.5725 20.6959 20.8506 20.8008C21.2212 20.9411 21.4111 21.126 21.4111 21.442C21.4111 21.8154 21.1202 22.0789 20.6126 22.0789C20.3789 22.0789 20.1629 22.0216 20.0126 21.9337L20.11 21.6397L20.1087 21.6403Z" fill="white"/>
<path d="M25.3497 18.917V21.4866C25.3497 21.6757 25.3539 21.8904 25.3673 22.0356H25.0186L25.001 21.6666H24.9919C24.8726 21.9039 24.6127 22.0838 24.264 22.0838C23.7479 22.0838 23.3506 21.6489 23.3506 21.0034C23.3463 20.2963 23.7875 19.8614 24.3078 19.8614C24.634 19.8614 24.8549 20.0151 24.9517 20.1865H24.9608V18.917H25.3491H25.3497ZM24.9614 20.7753C24.9614 20.7271 24.9572 20.6612 24.9438 20.613C24.8866 20.3671 24.6748 20.1652 24.3833 20.1652C23.9816 20.1652 23.7437 20.5166 23.7437 20.9863C23.7437 21.417 23.9555 21.7727 24.3748 21.7727C24.6352 21.7727 24.8732 21.6013 24.9438 21.3115C24.9572 21.259 24.9614 21.206 24.9614 21.1443V20.7753Z" fill="white"/>
<path d="M28.1113 21.4561C28.1113 21.6757 28.1156 21.8691 28.129 22.0356H27.7852L27.7632 21.6885H27.7541C27.6525 21.8599 27.4279 22.0838 27.0482 22.0838C26.7129 22.0838 26.3112 21.8996 26.3112 21.1522V19.9089H26.6995V21.0864C26.6995 21.4902 26.823 21.7629 27.176 21.7629C27.4365 21.7629 27.6172 21.583 27.6878 21.4115C27.7097 21.3542 27.7231 21.284 27.7231 21.2139V19.9089H28.1113V21.4554V21.4561Z" fill="white"/>
<path d="M32.8709 20.7357C32.849 20.3227 32.8222 19.8261 32.8265 19.4576H32.8131C32.7115 19.8047 32.5879 20.1738 32.4382 20.5819L31.913 22.0186H31.6221L31.1414 20.6088C31.0002 20.1915 30.8809 19.809 30.7975 19.4576H30.7884C30.7793 19.8267 30.7574 20.3233 30.7312 20.7668L30.6515 22.0363H30.2851L30.4926 19.0757H30.9825L31.4901 20.5075C31.6136 20.8723 31.7152 21.1969 31.7901 21.5044H31.8035C31.8783 21.2054 31.9842 20.8809 32.1169 20.5075L32.6464 19.0757H33.1362L33.3212 22.0363H32.9464L32.8715 20.7363L32.8709 20.7357Z" fill="white"/>
<path d="M36.03 21.4561C36.03 21.6757 36.0342 21.8691 36.0476 22.0356H35.7038L35.6819 21.6885H35.6727C35.5711 21.8599 35.3466 22.0838 34.9668 22.0838C34.6315 22.0838 34.2298 21.8996 34.2298 21.1522V19.9089H34.6181V21.0864C34.6181 21.4902 34.7416 21.7629 35.0946 21.7629C35.3551 21.7629 35.5358 21.583 35.6064 21.4115C35.6283 21.3542 35.6417 21.284 35.6417 21.2139V19.9089H36.03V21.4554V21.4561Z" fill="white"/>
<path d="M37.0049 18.917H37.3931V22.0356H37.0049V18.917Z" fill="white"/>
<path d="M38.8446 19.2988V19.9095H39.4002V20.2036H38.8446V21.3499C38.8446 21.6134 38.9194 21.7629 39.1355 21.7629C39.2371 21.7629 39.3119 21.7495 39.3606 21.7366L39.3783 22.0264C39.3034 22.0569 39.1841 22.0789 39.0344 22.0789C38.8537 22.0789 38.7083 22.0215 38.6151 21.9166C38.505 21.8025 38.4648 21.6134 38.4648 21.3633V20.2036H38.1338V19.9095H38.4648V19.4001L38.844 19.2988H38.8446Z" fill="white"/>
<path d="M40.6003 19.3124C40.6045 19.4442 40.5078 19.5497 40.3532 19.5497C40.2163 19.5497 40.1195 19.4442 40.1195 19.3124C40.1195 19.1806 40.2211 19.0708 40.3623 19.0708C40.5035 19.0708 40.6009 19.1763 40.6009 19.3124H40.6003ZM40.1682 22.0357V19.9096H40.5565V22.0357H40.1682Z" fill="white"/>
<path d="M41.5308 20.4849C41.5308 20.2653 41.5265 20.0853 41.5131 19.9096H41.8527L41.8703 20.2525H41.8837C42.003 20.0506 42.2014 19.8615 42.5544 19.8615C42.8459 19.8615 43.0662 20.0371 43.1587 20.2873H43.1672C43.2335 20.1689 43.3169 20.0762 43.4058 20.0103C43.5336 19.9139 43.6747 19.8608 43.878 19.8608C44.1604 19.8608 44.5797 20.0451 44.5797 20.7833V22.0351H44.2005V20.8315C44.2005 20.4227 44.0508 20.1769 43.7374 20.1769C43.5171 20.1769 43.3449 20.3391 43.2786 20.5283C43.2609 20.5807 43.2475 20.6515 43.2475 20.7216V22.0351H42.8684V20.7613C42.8684 20.4233 42.7187 20.1769 42.4229 20.1769C42.1801 20.1769 42.0036 20.3702 41.9422 20.5636C41.9203 20.621 41.9111 20.6869 41.9111 20.7528V22.0357H41.532V20.4849H41.5308Z" fill="white"/>
<path d="M45.7572 21.0431C45.7658 21.5659 46.1011 21.7813 46.4893 21.7813C46.7674 21.7813 46.9348 21.7331 47.0803 21.6715L47.1466 21.9484C47.0097 22.0101 46.776 22.0802 46.4364 22.0802C45.7791 22.0802 45.3866 21.6495 45.3866 21.0083C45.3866 20.3672 45.7658 19.862 46.3883 19.862C47.0851 19.862 47.2707 20.4727 47.2707 20.8637C47.2707 20.9431 47.2622 21.0041 47.2573 21.0437H45.7572V21.0431ZM46.8952 20.7661C46.8995 20.5203 46.7936 20.1378 46.3573 20.1378C45.9648 20.1378 45.7925 20.4977 45.7615 20.7661H46.8952ZM46.9877 18.9915L46.4498 19.6198H46.1717L46.5599 18.9915H46.9877Z" fill="white"/>
<path d="M49.9265 18.917V21.4866C49.9265 21.6757 49.9308 21.8904 49.9441 22.0356H49.5954L49.5778 21.6666H49.5687C49.4494 21.9039 49.1895 22.0838 48.8408 22.0838C48.3248 22.0838 47.9274 21.6489 47.9274 21.0034C47.9231 20.2963 48.3643 19.8614 48.8846 19.8614C49.2108 19.8614 49.4317 20.0151 49.5285 20.1865H49.537V18.917H49.9253H49.9265ZM49.5382 20.7753C49.5382 20.7271 49.534 20.6612 49.5206 20.613C49.4634 20.3671 49.2516 20.1652 48.9601 20.1652C48.5585 20.1652 48.3205 20.5166 48.3205 20.9863C48.3205 21.417 48.5323 21.7727 48.9516 21.7727C49.212 21.7727 49.45 21.6013 49.5206 21.3115C49.534 21.259 49.5382 21.206 49.5382 21.1443V20.7753Z" fill="white"/>
<path d="M51.3335 19.3124C51.3378 19.4442 51.241 19.5497 51.0864 19.5497C50.9495 19.5497 50.8527 19.4442 50.8527 19.3124C50.8527 19.1806 50.9544 19.0708 51.0955 19.0708C51.2367 19.0708 51.3341 19.1763 51.3341 19.3124H51.3335ZM50.9014 22.0357V19.9096H51.2897V22.0357H50.9014Z" fill="white"/>
<path d="M53.4464 22.0356L53.4154 21.7678H53.402C53.2827 21.9349 53.0533 22.0838 52.749 22.0838C52.3169 22.0838 52.096 21.7806 52.096 21.4731C52.096 20.9594 52.5549 20.6782 53.3801 20.6825V20.6385C53.3801 20.4628 53.3314 20.1462 52.8951 20.1462C52.6967 20.1462 52.4892 20.2078 52.3394 20.3042L52.2512 20.0492C52.4277 19.9351 52.6833 19.8601 52.9529 19.8601C53.6059 19.8601 53.7647 20.3036 53.7647 20.7301V21.525C53.7647 21.7092 53.7732 21.8898 53.8 22.0344H53.447L53.4464 22.0356ZM53.3892 20.9503C52.9657 20.9418 52.4849 21.0162 52.4849 21.4292C52.4849 21.6793 52.6523 21.7983 52.8513 21.7983C53.1294 21.7983 53.3058 21.6226 53.3673 21.4426C53.3807 21.403 53.3892 21.359 53.3892 21.3194V20.9503Z" fill="white"/>
<path d="M6.46354 25.4355C6.47267 25.9583 6.80738 26.1737 7.19564 26.1737C7.47376 26.1737 7.64111 26.1255 7.78656 26.0638L7.85289 26.3408C7.71596 26.4024 7.48228 26.4726 7.1427 26.4726C6.48545 26.4726 6.09293 26.0419 6.09293 25.4007C6.09293 24.7595 6.47206 24.2544 7.09462 24.2544C7.79143 24.2544 7.97704 24.8651 7.97704 25.2561C7.97704 25.3354 7.96791 25.3964 7.96365 25.4361H6.46354V25.4355ZM7.60155 25.1585C7.60581 24.9127 7.49992 24.5301 7.06358 24.5301C6.67106 24.5301 6.49884 24.8901 6.4678 25.1585H7.60155Z" fill="white"/>
<path d="M9.25623 23.6914V24.3021H9.81185V24.5961H9.25623V25.7424C9.25623 26.006 9.33108 26.1555 9.54712 26.1555C9.64875 26.1555 9.72361 26.142 9.77229 26.1292L9.78994 26.419C9.71509 26.4495 9.59581 26.4715 9.4461 26.4715C9.26536 26.4715 9.11991 26.4141 9.0268 26.3092C8.91665 26.1951 8.87709 26.006 8.87709 25.7559V24.5961H8.54604V24.3021H8.87709V23.7927L9.25623 23.6914Z" fill="white"/>
<path d="M13.6896 23.3096V25.8792C13.6896 26.0683 13.6939 26.283 13.7073 26.4282H13.3586L13.3409 26.0591H13.3318C13.2125 26.2964 12.9527 26.4764 12.6039 26.4764C12.0879 26.4764 11.6905 26.0414 11.6905 25.396C11.6862 24.6889 12.1274 24.254 12.6478 24.254C12.9739 24.254 13.1949 24.4077 13.2916 24.5791H13.3007V23.3096H13.689H13.6896ZM13.3014 25.1678C13.3014 25.1196 13.2971 25.0537 13.2837 25.0056C13.2265 24.7597 13.0147 24.5578 12.7232 24.5578C12.3216 24.5578 12.0836 24.9092 12.0836 25.3789C12.0836 25.8096 12.2954 26.1653 12.7147 26.1653C12.9752 26.1653 13.2131 25.9939 13.2837 25.7041C13.2971 25.6516 13.3014 25.5985 13.3014 25.5369V25.1678Z" fill="white"/>
<path d="M14.8806 25.4355C14.8897 25.9583 15.2244 26.1737 15.6127 26.1737C15.8908 26.1737 16.0581 26.1255 16.2036 26.0638L16.2699 26.3408C16.133 26.4024 15.8993 26.4726 15.5597 26.4726C14.9025 26.4726 14.51 26.0419 14.51 25.4007C14.51 24.7595 14.8891 24.2544 15.5117 24.2544C16.2085 24.2544 16.3941 24.8651 16.3941 25.2561C16.3941 25.3354 16.3849 25.3964 16.3807 25.4361H14.8806V25.4355ZM16.0186 25.1585C16.0229 24.9127 15.917 24.5301 15.4806 24.5301C15.0881 24.5301 14.9159 24.8901 14.8848 25.1585H16.0186Z" fill="white"/>
<path d="M18.4717 23.3096H18.86V26.4282H18.4717V23.3096Z" fill="white"/>
<path d="M20.3601 23.4192C20.2584 23.7883 20.0692 24.258 19.9456 24.4606L19.6986 24.4911C19.7953 24.2318 19.9103 23.7749 19.959 23.4588L20.3607 23.4192H20.3601Z" fill="white"/>
<path d="M21.5115 23.4675V26.4282H21.1275V23.4675H21.5115Z" fill="white"/>
<path d="M22.5436 24.8774C22.5436 24.6578 22.5393 24.4778 22.526 24.3021H22.8698L22.8917 24.6535H22.9008C23.0067 24.4516 23.2538 24.2539 23.6068 24.2539C23.9025 24.2539 24.3614 24.4296 24.3614 25.1586V26.4282H23.9731V25.2026C23.9731 24.8597 23.8453 24.5742 23.479 24.5742C23.2228 24.5742 23.0244 24.7542 22.9586 24.9695C22.941 25.0177 22.9319 25.0836 22.9319 25.1495V26.4276H22.5436V24.8768V24.8774Z" fill="white"/>
<path d="M25.7726 23.6914V24.3021H26.3283V24.5961H25.7726V25.7424C25.7726 26.006 25.8475 26.1555 26.0635 26.1555C26.1652 26.1555 26.24 26.142 26.2887 26.1292L26.3063 26.419C26.2315 26.4495 26.1122 26.4715 25.9625 26.4715C25.7818 26.4715 25.6363 26.4141 25.5432 26.3092C25.4331 26.1951 25.3935 26.006 25.3935 25.7559V24.5961H25.0624V24.3021H25.3935V23.7927L25.7726 23.6914Z" fill="white"/>
<path d="M27.2861 25.4355C27.2953 25.9583 27.63 26.1737 28.0182 26.1737C28.2963 26.1737 28.4637 26.1255 28.6091 26.0638L28.6755 26.3408C28.5386 26.4024 28.3049 26.4726 27.9653 26.4726C27.308 26.4726 26.9155 26.0419 26.9155 25.4007C26.9155 24.7595 27.2946 24.2544 27.9172 24.2544C28.614 24.2544 28.7996 24.8651 28.7996 25.2561C28.7996 25.3354 28.7905 25.3964 28.7862 25.4361H27.2861V25.4355ZM28.4241 25.1585C28.4284 24.9127 28.3225 24.5301 27.8862 24.5301C27.4936 24.5301 27.3214 24.8901 27.2904 25.1585H28.4241Z" fill="white"/>
<path d="M29.6108 24.9652C29.6108 24.7151 29.6066 24.4998 29.5932 24.3021H29.9328L29.9462 24.7194H29.9638C30.0606 24.4339 30.2949 24.2539 30.5547 24.2539C30.5985 24.2539 30.6296 24.2582 30.6649 24.2673V24.6321C30.6253 24.6236 30.5858 24.6187 30.5328 24.6187C30.2596 24.6187 30.0654 24.8249 30.0125 25.1153C30.0034 25.1678 29.9949 25.2294 29.9949 25.2953V26.4288H29.6108V24.9659V24.9652Z" fill="white"/>
<path d="M31.4018 24.8774C31.4018 24.6578 31.3976 24.4778 31.3842 24.3021H31.728L31.7499 24.6535H31.7591C31.865 24.4516 32.112 24.2539 32.465 24.2539C32.7608 24.2539 33.2196 24.4296 33.2196 25.1586V26.4282H32.8314V25.2026C32.8314 24.8597 32.7036 24.5742 32.3372 24.5742C32.081 24.5742 31.8826 24.7542 31.8169 24.9695C31.7992 25.0177 31.7901 25.0836 31.7901 25.1495V26.4276H31.4018V24.8768V24.8774Z" fill="white"/>
<path d="M34.3972 25.4355C34.4063 25.9583 34.741 26.1737 35.1293 26.1737C35.4074 26.1737 35.5748 26.1255 35.7202 26.0638L35.7865 26.3408C35.6496 26.4024 35.4159 26.4726 35.0763 26.4726C34.4191 26.4726 34.0266 26.0419 34.0266 25.4007C34.0266 24.7595 34.4057 24.2544 35.0283 24.2544C35.7251 24.2544 35.9107 24.8651 35.9107 25.2561C35.9107 25.3354 35.9016 25.3964 35.8973 25.4361H34.3972V25.4355ZM35.5352 25.1585C35.5395 24.9127 35.4336 24.5301 34.9972 24.5301C34.6047 24.5301 34.4325 24.8901 34.4014 25.1585H35.5352Z" fill="white"/>
<path d="M37.1899 23.6914V24.3021H37.7455V24.5961H37.1899V25.7424C37.1899 26.006 37.2647 26.1555 37.4808 26.1555C37.5824 26.1555 37.6573 26.142 37.7059 26.1292L37.7236 26.419C37.6487 26.4495 37.5295 26.4715 37.3798 26.4715C37.199 26.4715 37.0536 26.4141 36.9605 26.3092C36.8503 26.1951 36.8107 26.006 36.8107 25.7559V24.5961H36.4797V24.3021H36.8107V23.7927L37.1899 23.6914Z" fill="white"/>
<path d="M47.8665 3.62436C48.5262 3.59508 49.2607 4.1722 49.2473 4.88902C49.2346 5.5485 48.595 6.04387 48.029 6.09207C47.3839 6.14698 46.619 5.6394 46.594 4.91953C46.5703 4.22771 47.2421 3.65181 47.8665 3.62375V3.62436Z" fill="#1974BA"/>
<path d="M49.2474 7.80584V15.7123C49.2474 15.7123 48.9504 16.3803 47.9134 16.3803C46.8764 16.3803 46.6543 15.7568 46.6543 15.7568V7.20798C46.6543 7.20798 46.9646 6.43136 47.9201 6.44601C47.9469 6.44601 47.973 6.44723 47.9986 6.44906C48.7051 6.49054 49.2474 7.09633 49.2474 7.80523V7.80584Z" fill="white"/>
<path d="M44.3137 10.0289V15.0796C44.3137 15.7678 43.78 16.354 43.0936 16.3791C43.0674 16.3803 43.0412 16.3803 43.0138 16.3803C42.9542 16.3797 42.8964 16.376 42.841 16.3699C42.188 16.2985 41.6987 15.7354 41.6987 15.0772V10.2296C41.6987 10.046 41.6622 9.86356 41.5849 9.69702C41.3756 9.24557 40.8078 8.49519 39.3503 8.50617C37.8928 8.51715 37.2288 9.28217 36.9282 9.76595C36.801 9.97093 36.7353 10.2076 36.7353 10.4486V15.0778C36.7353 15.7824 36.176 16.3632 35.4731 16.3791C35.4409 16.3797 35.4074 16.3803 35.3733 16.3797C35.3338 16.3797 35.2954 16.3784 35.2577 16.3772C34.5609 16.3534 34.0108 15.7751 34.0108 15.0766V10.2198C34.0108 10.0521 33.9803 9.88553 33.9158 9.73057C33.7247 9.27119 33.1636 8.49458 31.5528 8.50617C29.8372 8.51776 29.3181 9.44933 29.166 9.91298C29.1246 10.0399 29.1051 10.1729 29.1051 10.3059V14.1029C29.1051 14.827 28.5148 15.4121 27.7925 15.4048L27.6543 15.4036C26.9429 15.3956 26.3696 14.8155 26.3696 14.1017V9.77632C26.3696 9.51278 26.4488 9.25594 26.5979 9.03876C27.1571 8.22737 28.7491 6.33373 31.4426 6.30933C33.2087 6.29347 34.1897 6.69733 34.7258 7.09326C35.1518 7.40744 35.7275 7.42636 36.1748 7.1439C36.8217 6.73637 37.8538 6.30018 39.3022 6.30872C42.0109 6.32458 44.2498 8.22432 44.3125 10.0289H44.3137Z" fill="white"/>
<path d="M24.3346 10.0289V15.0796C24.3346 15.7678 23.8009 16.354 23.1144 16.3791C23.0883 16.3803 23.0621 16.3803 23.0347 16.3803C22.9751 16.3797 22.9173 16.376 22.8619 16.3699C22.2089 16.2985 21.7196 15.7354 21.7196 15.0772V10.2296C21.7196 10.046 21.6831 9.86356 21.6058 9.69702C21.3965 9.24557 20.8287 8.49519 19.3712 8.50617C17.949 8.51715 17.2497 9.28217 16.9491 9.76595C16.8219 9.97093 16.7562 10.2076 16.7562 10.4486V15.0778C16.7562 15.7824 16.1969 16.3632 15.494 16.3791C15.4618 16.3797 15.4283 16.3803 15.3942 16.3797C15.3547 16.3797 15.3163 16.3784 15.2786 16.3772C14.5818 16.3534 14.0316 15.7751 14.0316 15.0766V10.2198C14.0316 10.0521 14.0012 9.88553 13.9367 9.73057C13.7456 9.27119 13.1845 8.49458 11.5736 8.50617C9.85811 8.51776 9.33901 9.44933 9.18687 9.91298C9.14548 10.0399 9.12601 10.1729 9.12601 10.3059V14.1029C9.12601 14.827 8.5357 15.4121 7.81334 15.4048L7.67519 15.4036C6.96378 15.3956 6.39052 14.8155 6.39052 14.1017V9.77632C6.39052 9.51278 6.42521 9.42493 6.61873 9.03876C7.06055 8.15782 8.77 6.33373 11.4635 6.30933C13.2295 6.29347 14.2106 6.69733 14.7467 7.09326C15.1727 7.40744 15.7484 7.42636 16.1957 7.1439C16.8426 6.73637 17.8747 6.30018 19.3231 6.30872C22.0318 6.32458 24.2707 8.22432 24.3334 10.0289H24.3346Z" fill="white"/>
<path d="M27.6829 13.0841C28.3633 13.0548 29.1204 13.6313 29.1057 14.3481C29.093 15.0076 28.4333 15.5024 27.8503 15.5506C27.1857 15.6055 26.397 15.0985 26.3715 14.3786C26.3471 13.6868 27.0397 13.1115 27.6829 13.0835V13.0841Z" fill="#DA0B3D"/>
<path d="M7.70624 13.0833C8.38539 13.0541 9.14062 13.6312 9.12662 14.348C9.11384 15.0075 8.45538 15.5029 7.87359 15.5511C7.21026 15.606 6.42278 15.0984 6.39783 14.3785C6.37348 13.6867 7.06481 13.1108 7.70685 13.0827L7.70624 13.0833Z" fill="#F5BD45"/>
<path d="M6.82929 30.1073C6.92605 30.1031 7.03377 30.1854 7.03194 30.2879C7.03012 30.3819 6.9364 30.4526 6.85303 30.4593C6.75809 30.4673 6.64611 30.3947 6.64246 30.2922C6.63881 30.1934 6.7374 30.111 6.82929 30.1073Z" fill="#F5BD45"/>
<path d="M45.0276 30.6459C45.1779 30.5892 45.2935 30.8637 45.5382 30.8582C45.7554 30.8533 45.8534 30.6325 45.9763 30.6862C46.0566 30.7216 46.0932 30.8503 46.0737 30.9455C46.0329 31.1504 45.7232 31.2633 45.4882 31.2578C45.2393 31.2517 44.9229 31.1077 44.9028 30.8954C44.8937 30.8021 44.9405 30.6782 45.0276 30.6459Z" fill="#FF0000"/>
<path d="M6.63699 30.9712H7.03804L6.99544 32.9167H6.63699V30.9712Z" fill="white"/>
<path d="M7.73909 31.1761H8.19856V32.1571C8.19856 32.4597 8.36469 32.6104 8.69818 32.6104C8.84607 32.6104 8.96352 32.5701 9.04933 32.489C9.13574 32.4079 9.17895 32.2974 9.17895 32.1565V31.1755H9.63355V32.2157C9.63355 32.4335 9.5447 32.6129 9.367 32.7538C9.1893 32.8941 8.96169 32.9649 8.68541 32.9649C8.40912 32.9649 8.17543 32.8947 8.00138 32.7538C7.82672 32.6129 7.7397 32.4298 7.7397 32.2029V31.1755L7.73909 31.1761Z" fill="white"/>
<path d="M13.0366 30.7974L14.7205 32.3695V30.8803H15.0315V33.0448L13.3476 31.4794V32.9485H13.0366V30.7974Z" fill="white"/>
<path d="M15.6589 32.2738C15.6589 32.0908 15.7387 31.9285 15.8975 31.7858C16.0563 31.6436 16.2395 31.5723 16.4452 31.5723C16.6509 31.5723 16.8426 31.6424 17.0014 31.7827C17.1597 31.923 17.2394 32.0866 17.2394 32.2738C17.2394 32.4611 17.1615 32.6283 17.0063 32.7717C16.8511 32.915 16.671 32.987 16.4671 32.987C16.2492 32.987 16.06 32.9162 15.8993 32.7741C15.7393 32.6326 15.6589 32.4654 15.6589 32.2738ZM16.9387 32.2745C16.9387 32.1604 16.8913 32.0615 16.7957 31.9773C16.7002 31.8932 16.587 31.8511 16.4562 31.8511C16.3253 31.8511 16.2054 31.8938 16.1087 31.9786C16.0119 32.0634 15.9632 32.1652 15.9632 32.2836C15.9632 32.402 16.0125 32.4953 16.1105 32.5795C16.2085 32.6637 16.3241 32.7064 16.4562 32.7064C16.5882 32.7064 16.6978 32.6631 16.7939 32.5764C16.8907 32.4898 16.9387 32.3891 16.9387 32.2738V32.2745Z" fill="white"/>
<path d="M18.193 31.6094V31.8851C18.2624 31.7747 18.3299 31.6948 18.3956 31.6453C18.462 31.5959 18.5478 31.5715 18.6543 31.5715C18.6841 31.5715 18.7267 31.5782 18.7827 31.5911L18.6878 31.8735C18.6281 31.8625 18.5886 31.857 18.5697 31.857C18.465 31.857 18.3768 31.89 18.3062 31.9571C18.235 32.0236 18.1997 32.1066 18.1997 32.206V32.9478H17.8887V31.6081H18.1924L18.193 31.6094Z" fill="white"/>
<path d="M20.5773 30.8413H20.8847V32.9485H20.581V32.6691C20.4343 32.8801 20.242 32.9857 20.0047 32.9857C19.8124 32.9857 19.6481 32.9161 19.5105 32.7764C19.373 32.6367 19.3048 32.469 19.3048 32.2731C19.3048 32.0773 19.3748 31.9169 19.5142 31.779C19.6535 31.6411 19.8203 31.5722 20.0138 31.5722C20.1294 31.5722 20.2378 31.6014 20.3376 31.66C20.438 31.7186 20.5177 31.7948 20.5773 31.8888V30.8413ZM20.6133 32.2768C20.6133 32.1566 20.5652 32.0523 20.4684 31.9644C20.3717 31.876 20.2566 31.8321 20.1227 31.8321C19.9889 31.8321 19.8672 31.8754 19.771 31.9614C19.6748 32.0474 19.6268 32.1529 19.6268 32.2774C19.6268 32.4019 19.6755 32.5007 19.7734 32.5898C19.8714 32.6788 19.9852 32.724 20.1154 32.724C20.2542 32.724 20.3717 32.6807 20.4684 32.594C20.5652 32.5074 20.6133 32.4019 20.6133 32.2774V32.2768Z" fill="white"/>
<path d="M10.8306 30.1799V30.7906H11.3862V31.0847H10.8306V32.231C10.8306 32.4945 10.9055 32.644 11.1215 32.644C11.2231 32.644 11.298 32.6306 11.3467 32.6177L11.3643 32.9075C11.2895 32.938 11.1702 32.96 11.0205 32.96C10.8397 32.96 10.6943 32.9026 10.6012 32.7977C10.491 32.6836 10.4515 32.4945 10.4515 32.2444V31.0847H10.1204V30.7906H10.4515V30.2812L10.8306 30.1799Z" fill="white"/>
<path d="M11.3461 32.6134C11.4319 32.6098 11.5274 32.6805 11.5256 32.7684C11.5238 32.8495 11.4404 32.9099 11.3667 32.916C11.2828 32.9227 11.183 32.8605 11.1799 32.772C11.1769 32.6872 11.2645 32.6165 11.3454 32.6134H11.3461Z" fill="#1974BA"/>
<path d="M9.39622 30.9577C9.50941 30.9522 9.63538 31.0541 9.63295 31.1804C9.63051 31.2963 9.52097 31.3836 9.42421 31.3921C9.31345 31.4019 9.18261 31.3122 9.17835 31.1859C9.17409 31.0639 9.28972 30.9626 9.39683 30.9577H9.39622Z" fill="#FF0000"/>
</svg>
