<svg width="28" height="28" viewBox="0 0 28 28" fill="none" xmlns="http://www.w3.org/2000/svg">
<path fill-rule="evenodd" clip-rule="evenodd" d="M19.8791 18.2284C21.3166 16.4313 22.1762 14.1517 22.1762 11.6714C22.1762 5.86977 17.473 1.16663 11.6714 1.16663C5.8698 1.16663 1.16666 5.86977 1.16666 11.6714C1.16666 17.473 5.8698 22.1762 11.6714 22.1762C14.1518 22.1762 16.4313 21.3166 18.2285 19.879L24.8408 26.4915C25.2966 26.9473 26.0357 26.9473 26.4915 26.4915C26.9473 26.0356 26.9473 25.2966 26.4915 24.8407L19.8791 18.2284ZM11.6714 19.8535C7.15259 19.8535 3.48934 16.1903 3.48934 11.6714C3.48934 7.15256 7.15259 3.48931 11.6714 3.48931C16.1903 3.48931 19.8535 7.15256 19.8535 11.6714C19.8535 16.1903 16.1903 19.8535 11.6714 19.8535Z" fill="black"/>
</svg>
